<mxfile host="65bd71144e">
    <diagram id="ru4LCAHObGpORlv72GOh" name="Page-1">
        <mxGraphModel dx="751" dy="420" grid="1" gridSize="10" guides="1" tooltips="1" connect="1" arrows="1" fold="1" page="1" pageScale="1" pageWidth="827" pageHeight="1169" math="0" shadow="0">
            <root>
                <mxCell id="0"/>
                <mxCell id="1" parent="0"/>
                <mxCell id="2" value="Request" style="swimlane;horizontal=0;whiteSpace=wrap;html=1;fillColor=#60a917;fontColor=#ffffff;strokeColor=#2D7600;" vertex="1" parent="1">
                    <mxGeometry x="80" y="200" width="400" height="120" as="geometry"/>
                </mxCell>
                <mxCell id="5" value="Queue&lt;br&gt;Message" style="ellipse;whiteSpace=wrap;html=1;aspect=fixed;fillColor=#e3c800;fontColor=#000000;strokeColor=#B09500;" vertex="1" parent="2">
                    <mxGeometry x="40" y="27.5" width="65" height="65" as="geometry"/>
                </mxCell>
                <mxCell id="10" value="Queue&lt;br&gt;Message" style="ellipse;whiteSpace=wrap;html=1;aspect=fixed;fillColor=#e3c800;fontColor=#000000;strokeColor=#B09500;" vertex="1" parent="2">
                    <mxGeometry x="180" y="27.5" width="65" height="65" as="geometry"/>
                </mxCell>
                <mxCell id="9" value="Queue&lt;br&gt;Message" style="ellipse;whiteSpace=wrap;html=1;aspect=fixed;fillColor=#e3c800;fontColor=#000000;strokeColor=#B09500;" vertex="1" parent="2">
                    <mxGeometry x="110" y="27.5" width="65" height="65" as="geometry"/>
                </mxCell>
                <mxCell id="11" value="Queue&lt;br&gt;Message" style="ellipse;whiteSpace=wrap;html=1;aspect=fixed;fillColor=#e3c800;fontColor=#000000;strokeColor=#B09500;" vertex="1" parent="2">
                    <mxGeometry x="250" y="27.5" width="65" height="65" as="geometry"/>
                </mxCell>
                <mxCell id="3" value="Response" style="swimlane;horizontal=0;whiteSpace=wrap;html=1;fillColor=#e51400;fontColor=#ffffff;strokeColor=#B20000;" vertex="1" parent="1">
                    <mxGeometry x="80" y="320" width="400" height="120" as="geometry"/>
                </mxCell>
                <mxCell id="4" value="" style="shape=process;whiteSpace=wrap;html=1;backgroundOutline=1;" vertex="1" parent="1">
                    <mxGeometry x="80" y="80" width="120" height="60" as="geometry"/>
                </mxCell>
            </root>
        </mxGraphModel>
    </diagram>
</mxfile>